<svg width="5212" height="922" viewBox="0 0 5212 922" fill="none" xmlns="http://www.w3.org/2000/svg">
<rect width="922" height="922" rx="80" fill="#FF0000"/>
<rect x="38.6982" y="38.6992" width="844.602" height="844.602" rx="76" fill="#FF0000" stroke="white" stroke-width="8"/>
<path d="M156.981 786.229H364.951" stroke="white" stroke-width="40" stroke-linecap="round"/>
<path d="M90.0078 94.5254H157.862C167.556 94.8129 186.943 104.358 186.943 140.239C186.943 145.331 186.943 153.321 186.943 163.527M186.943 441.26C186.943 367.989 186.943 225.239 186.943 163.527M186.943 163.527H134.069C119.382 162.09 90.0078 167.667 90.0078 201.478C90.0078 235.289 90.0078 375.421 90.0078 441.26M232.766 94.5254H417.824M435.448 94.5254H417.824M417.824 94.5254V314.535C418.411 331.21 411.831 363.009 373.762 363.699" stroke="white" stroke-width="40" stroke-linecap="round"/>
<path d="M90.008 489.664H261.406M432.805 489.664H261.406M261.406 489.664V785.357M90.008 575.908H432.805M90.008 831.119V696.473C89.7143 682.979 97.4103 655.815 130.544 655.111C163.678 654.407 188.999 654.818 197.517 655.111" stroke="white" stroke-width="40" stroke-linecap="round"/>
<path d="M486.559 490.543V787.116C486.559 800.316 495.195 826.894 529.739 827.598C564.283 828.302 703.928 827.891 769.432 827.598M537.67 490.543H677.785M830.237 827.598C830.237 800.903 830.237 738.714 830.237 703.512C830.237 668.311 804.975 658.924 792.344 658.63H579.969C568.513 656.87 545.601 647.19 545.601 622.549C545.601 597.908 568.513 588.227 579.969 586.467C606.1 586.576 642.189 586.7 677.785 586.778M677.785 490.543H792.344C802.625 488.49 824.597 492.303 830.237 523.985C837.286 563.586 815.256 585.587 803.8 586.467C798.018 586.911 738.621 586.912 677.785 586.778M677.785 490.543V586.778" stroke="white" stroke-width="40" stroke-linecap="round"/>
<path d="M489.203 711.43H766.789M766.789 772.152H489.203" stroke="white" stroke-width="40" stroke-linecap="round"/>
<path d="M322.651 655.99H401.936C413.107 656.817 435.448 666.732 435.448 699.786C435.448 732.839 435.448 801.699 435.448 831.998" stroke="white" stroke-width="40" stroke-linecap="round"/>
<path d="M247.747 144.686V278.451C247.747 292.532 259.322 317.173 298.858 317.173C349.088 317.173 361.425 303.092 361.425 278.451C361.425 253.81 361.425 179.007 361.425 144.686" stroke="white" stroke-width="40" stroke-linecap="round"/>
<path d="M248.629 176.368H359.663M527.096 440.379V146.447C526.802 127.673 534.675 90.1244 568.514 90.1244C602.353 90.1244 700.698 90.1244 745.64 90.1244C761.502 88.951 793.05 95.5806 792.345 131.486C791.64 167.392 792.051 352.376 792.345 440.379M568.514 225.65H745.64M483.916 359.415H832" stroke="white" stroke-width="40" stroke-linecap="round"/>
<path d="M375.012 363.824H279.027C268.362 363.529 246.677 369.67 245.255 396.594C243.477 430.249 257.697 438.221 268.362 439.106C276.894 439.815 383.308 439.402 435.448 439.106" stroke="white" stroke-width="40" stroke-linecap="round"/>
<path d="M4711.53 218.472V690.977M4836.21 218.472C4922.83 212.889 5060.02 254.78 5060.02 456.98C5060.02 650.347 4926.77 697.744 4836.21 690.977" stroke="#001524" stroke-width="80" stroke-linecap="round"/>
<path d="M2172.99 218.472V690.977M2297.66 218.472C2384.28 212.889 2521.47 254.78 2521.47 456.98C2521.47 650.347 2388.23 697.744 2297.66 690.977" stroke="#001524" stroke-width="80" stroke-linecap="round"/>
<path d="M1635.18 217V526.43C1633.87 580.953 1654.59 690 1747.92 690" stroke="#001524" stroke-width="80" stroke-linecap="round"/>
<path d="M1982.95 217V526.43C1984.26 580.953 1963.54 690 1870.21 690" stroke="#001524" stroke-width="80" stroke-linecap="round"/>
<path d="M1102 217L1198.18 393" stroke="#001524" stroke-width="80" stroke-linecap="round"/>
<path d="M1445.14 217L1274.17 500.996V690" stroke="#001524" stroke-width="80" stroke-linecap="round"/>
<path d="M4048.99 218V691.5" stroke="#001524" stroke-width="80" stroke-linecap="round"/>
<path d="M4396.89 218V691.5" stroke="#001524" stroke-width="80" stroke-linecap="round"/>
<path d="M4166.54 455H4379.08" stroke="#001524" stroke-width="80" stroke-linecap="round"/>
<path d="M3247.54 217V690" stroke="#001524" stroke-width="80" stroke-linecap="round"/>
<path d="M3366.27 336.5L3575.63 690.534C3580.81 699.293 3594.24 695.62 3594.24 685.444V218" stroke="#001524" stroke-width="80" stroke-linecap="round"/>
<path d="M2711.45 690.5L2871.95 216.45C2874.99 207.448 2887.7 207.374 2890.85 216.34L3057.56 690.5" stroke="#001524" stroke-width="80" stroke-linecap="round"/>
<path d="M2862.24 556H2906.77" stroke="#001524" stroke-width="80" stroke-linecap="round"/>
<ellipse cx="4550.65" cy="683.5" rx="58.7737" ry="49.5" fill="#001524"/>
<ellipse cx="5153.23" cy="683.5" rx="58.7737" ry="49.5" fill="#001524"/>
</svg>
