<svg width="558" height="558" viewBox="0 0 558 558" fill="none" xmlns="http://www.w3.org/2000/svg">
<rect width="558" height="558" rx="80" fill="#FF0000"/>
<rect x="25" y="25" width="508" height="508" rx="76" fill="#FF0000" stroke="white" stroke-width="8"/>
<path d="M103 465H221" stroke="white" stroke-width="18" stroke-linecap="round"/>
<path d="M65 72H103.5C109 72.1633 120 77.5866 120 97.9726C120 100.866 120 105.405 120 111.204M120 269C120 227.37 120 146.266 120 111.204M120 111.204H90C81.6667 110.387 65 113.556 65 132.766C65 151.976 65 231.593 65 269M146 72H251M261 72H251M251 72V197C251.333 206.474 247.6 224.541 226 224.933" stroke="white" stroke-width="18" stroke-linecap="round"/>
<path d="M65.0001 296.5H162.25M259.5 296.5H162.25M162.25 296.5V464.5M65.0001 345.5H259.5M65.0001 490.5V414C64.8335 406.333 69.2001 390.9 88.0001 390.5C106.8 390.1 121.167 390.333 126 390.5" stroke="white" stroke-width="18" stroke-linecap="round"/>
<path d="M290 297V465.5C290 473 294.9 488.1 314.5 488.5C334.1 488.9 413.333 488.667 450.5 488.5M319 297H398.5M485 488.5C485 473.333 485 438 485 418C485 398 470.667 392.667 463.5 392.5H343C336.5 391.5 323.5 386 323.5 372C323.5 358 336.5 352.5 343 351.5C357.827 351.562 378.303 351.632 398.5 351.677M398.5 297H463.5C469.333 295.833 481.8 298 485 316C489 338.5 476.5 351 470 351.5C466.719 351.752 433.018 351.753 398.5 351.677M398.5 297V351.677" stroke="white" stroke-width="18" stroke-linecap="round"/>
<path d="M291.5 422.5H449M449 457H291.5" stroke="white" stroke-width="18" stroke-linecap="round"/>
<path d="M197 391H241.986C248.324 391.469 261 397.103 261 415.883C261 434.662 261 473.786 261 491" stroke="white" stroke-width="18" stroke-linecap="round"/>
<path d="M154.5 100.5V176.5C154.5 184.5 161.068 198.5 183.5 198.5C212 198.5 219 190.5 219 176.5C219 162.5 219 120 219 100.5" stroke="white" stroke-width="18" stroke-linecap="round"/>
<path d="M155 118.5H218M313 268.5V101.5C312.833 90.8337 317.3 69.5004 336.5 69.5004C355.7 69.5004 411.5 69.5004 437 69.5004C446 68.8337 463.9 72.6004 463.5 93.0004C463.1 113.4 463.333 218.5 463.5 268.5M336.5 146.5H437M288.5 222.5H486" stroke="white" stroke-width="18" stroke-linecap="round"/>
<path d="M226.709 225.006H172.248C166.197 224.838 153.893 228.327 153.086 243.624C152.078 262.746 160.146 267.275 166.197 267.778C171.038 268.18 231.416 267.945 261 267.778" stroke="white" stroke-width="18" stroke-linecap="round"/>
</svg>
